<?xml version="1.0" encoding="utf-8"?>
<svg xmlns="http://www.w3.org/2000/svg" xmlns:xlink="http://www.w3.org/1999/xlink" style="margin: auto; background: none; display: block; shape-rendering: auto;" width="200px" height="200px" viewBox="0 0 100 100" preserveAspectRatio="xMidYMid">
<g transform="translate(50 50)">
<g>
<animateTransform attributeName="transform" type="rotate" values="0;45" keyTimes="0;1" dur="0.2s" repeatCount="indefinite"></animateTransform><path d="M22.555487137279922 -4.5 L33.555487137279925 -4.5 L33.555487137279925 4.5 L22.555487137279922 4.5 A23 23 0 0 1 19.131118423076046 12.767157392397117 L19.131118423076046 12.767157392397117 L26.909293016128068 20.54533198544914 L20.545331985449142 26.909293016128068 L12.767157392397118 19.131118423076046 A23 23 0 0 1 4.500000000000002 22.555487137279922 L4.500000000000002 22.555487137279922 L4.500000000000003 33.555487137279925 L-4.499999999999998 33.555487137279925 L-4.499999999999999 22.555487137279922 A23 23 0 0 1 -12.767157392397117 19.131118423076046 L-12.767157392397117 19.131118423076046 L-20.54533198544914 26.909293016128068 L-26.909293016128068 20.545331985449142 L-19.131118423076046 12.767157392397118 A23 23 0 0 1 -22.555487137279922 4.500000000000003 L-22.555487137279922 4.500000000000003 L-33.555487137279925 4.5000000000000036 L-33.555487137279925 -4.4999999999999964 L-22.555487137279922 -4.499999999999997 A23 23 0 0 1 -19.131118423076046 -12.767157392397113 L-19.131118423076046 -12.767157392397113 L-26.909293016128075 -20.54533198544913 L-20.545331985449156 -26.909293016128053 L-12.767157392397129 -19.131118423076035 A23 23 0 0 1 -4.500000000000014 -22.55548713727992 L-4.500000000000014 -22.55548713727992 L-4.500000000000016 -33.55548713727992 L4.500000000000004 -33.555487137279925 L4.500000000000006 -22.555487137279922 A23 23 0 0 1 12.767157392397122 -19.131118423076042 L12.767157392397122 -19.131118423076042 L20.545331985449142 -26.909293016128068 L26.909293016128057 -20.545331985449153 L19.131118423076035 -12.767157392397129 A23 23 0 0 1 22.55548713727992 -4.500000000000015 M0 -11A11 11 0 1 0 0 11 A11 11 0 1 0 0 -11" fill="#603417"></path></g></g>
<!-- [ldio] generated by https://loading.io/ --></svg>